<svg xmlns="http://www.w3.org/2000/svg" viewBox="0 0 96 96" fill="none">
  <rect width="96" height="96" rx="20" fill="#1A2238"/>
  <path d="M24 28c0-4.4 3.6-8 8-8h30c5.5 0 10 4.5 10 10v38c0 4.4-3.6 8-8 8H34c-5.5 0-10-4.5-10-10V28z" fill="#2E3B63"/>
  <path d="M34 26h28c2.2 0 4 1.8 4 4v36c0 2.2-1.8 4-4 4H34c-2.2 0-4-1.8-4-4V30c0-2.2 1.8-4 4-4z" fill="#7EA2FF"/>
  <rect x="36" y="34" width="24" height="4" rx="2" fill="#EAF0FF"/>
  <rect x="36" y="44" width="20" height="4" rx="2" fill="#EAF0FF"/>
  <rect x="36" y="54" width="16" height="4" rx="2" fill="#EAF0FF"/>
</svg>
